<svg width="969" height="728" viewBox="0 0 969 728" fill="none" xmlns="http://www.w3.org/2000/svg">
<path d="M205.869 728L202.982 728.815L203.598 731H205.869V728ZM0.613281 0.727251V-2.27275H-3.35059L-2.27394 1.5421L0.613281 0.727251ZM142.304 0.727251L145.217 0.0128621L144.657 -2.27275H142.304V0.727251ZM273.341 535.173L270.427 535.888L270.987 538.173H273.341V535.173ZM280.088 535.173V538.173H282.403L282.99 535.933L280.088 535.173ZM420.002 0.727251V-2.27275H417.687L417.1 -0.0325264L420.002 0.727251ZM548.909 0.727251L551.811 -0.0338574L551.223 -2.27275H548.909V0.727251ZM689.179 535.528L686.277 536.29L686.864 538.528H689.179V535.528ZM695.571 535.528V538.528H697.924L698.485 536.242L695.571 535.528ZM826.608 0.727251V-2.27275H824.254L823.694 0.0133096L826.608 0.727251ZM968.298 0.727251L971.185 1.5421L972.262 -2.27275H968.298V0.727251ZM763.042 728V731H765.313L765.929 728.815L763.042 728ZM633.071 728L630.186 728.823L630.807 731H633.071V728ZM487.474 217.702L490.359 216.879L489.738 214.702H487.474V217.702ZM481.792 217.702V214.702H479.53L478.908 216.877L481.792 217.702ZM335.841 728V731H338.103L338.725 728.825L335.841 728ZM208.756 727.185L3.5005 -0.0875982L-2.27394 1.5421L202.982 728.815L208.756 727.185ZM0.613281 3.72725H142.304V-2.27275H0.613281V3.72725ZM139.39 1.44164L270.427 535.888L276.254 534.459L145.217 0.0128621L139.39 1.44164ZM273.341 538.173H280.088V532.173H273.341V538.173ZM282.99 535.933L422.905 1.48703L417.1 -0.0325264L277.186 534.414L282.99 535.933ZM420.002 3.72725H548.909V-2.27275H420.002V3.72725ZM546.007 1.48836L686.277 536.29L692.081 534.767L551.811 -0.0338574L546.007 1.48836ZM689.179 538.528H695.571V532.528H689.179V538.528ZM698.485 536.242L829.521 1.44119L823.694 0.0133096L692.657 534.814L698.485 536.242ZM826.608 3.72725H968.298V-2.27275H826.608V3.72725ZM965.411 -0.0875982L760.155 727.185L765.929 728.815L971.185 1.5421L965.411 -0.0875982ZM763.042 725H633.071V731H763.042V725ZM635.956 727.177L490.359 216.879L484.589 218.525L630.186 728.823L635.956 727.177ZM487.474 214.702H481.792V220.702H487.474V214.702ZM478.908 216.877L332.956 727.175L338.725 728.825L484.677 218.527L478.908 216.877ZM335.841 725H205.869V731H335.841V725Z" fill="white"/>
</svg>
